<svg height="512pt" viewBox="0 -20 512 512" width="512pt" xmlns="http://www.w3.org/2000/svg"><path d="m74.914062 471.59375c-1.855468 0-3.710937-.105469-5.570312-.3125-16.273438-1.808594-27.695312-11.074219-33.058594-16.4375l-11.3125-11.3125c-3.125-3.125-3.125-8.1875 0-11.3125 3.121094-3.125 8.1875-3.125 11.3125 0l11.3125 11.3125c3.125 3.125 11.667969 10.53125 23.511719 11.847656 12.664063 1.40625 25.691406-4.480468 38.714844-17.503906 3.125-3.125 8.1875-3.125 11.3125 0s3.125 8.1875 0 11.3125c-14.886719 14.886719-30.410157 22.40625-46.222657 22.40625zm0 0" fill="#fab155"/><path d="m2.34375 409.589844 79.195312-79.195313c3.125-3.121093 8.1875-3.121093 11.3125 0l22.628907 22.628907c3.125 3.125 3.125 8.1875 0 11.3125l-79.195313 79.195312c-1.5625 1.5625-3.609375 2.34375-5.65625 2.34375-2.050781 0-4.097656-.78125-5.660156-2.34375l-22.625-22.625c-3.125-3.125-3.125-8.191406 0-11.316406zm0 0" fill="#ffe45c"/><path d="m81.539062 330.394531 328.097657-328.097656c3.625-3.625 9.882812-2.847656 12.515625 1.542969 2.066406 3.441406 18.316406 35.507812-46.457032 100.28125l-260.214843 260.214844c-1.5625 1.5625-3.609375 2.34375-5.65625 2.34375s-4.09375-.78125-5.65625-2.34375l-22.628907-22.628907c-3.125-3.125-3.125-8.1875 0-11.3125zm0 0" fill="#e9eaef"/><path d="m81.539062 330.394531 328.097657-328.097656c3.625-3.625 9.882812-2.847656 12.515625 1.542969 2.066406 3.441406 18.316406 35.507812-46.457032 100.28125l-260.214843 260.214844c-1.5625 1.5625-3.609375 2.34375-5.65625 2.34375s-4.09375-.78125-5.65625-2.34375l-22.628907-22.628907c-3.125-3.125-3.125-8.1875 0-11.3125zm0 0" fill="#e9eaef"/><path d="m81.539062 330.394531 328.097657-328.097656c1.59375-1.59375 3.695312-2.3320312 5.777343-2.29296875 3.296876 11.58203175 4.261719 42.63671875-48.46875 95.36718775l-260.214843 260.214844c-1.566407 1.5625-3.609375 2.34375-5.660157 2.34375-2.046874 0-4.09375-.78125-5.65625-2.34375l-13.875-13.878907c-3.125-3.125-3.125-8.1875 0-11.3125zm0 0" fill="#dfe0e7"/><g fill="#fff2ad"><path d="m48.539062 363.386719 11.316407-11.3125 33.941406 33.941406-11.316406 11.3125zm0 0"/><path d="m31.570312 380.359375 11.3125-11.316406 33.941407 33.941406-11.3125 11.316406zm0 0"/><path d="m14.597656 397.328125 11.316406-11.3125 33.941407 33.941406-11.316407 11.3125zm0 0"/></g><path d="m115.480469 451.53125c-2.046875 0-4.09375-.78125-5.65625-2.339844-3.125-3.125-3.125-8.191406 0-11.316406 13.03125-13.03125 18.933593-26.046875 17.535156-38.6875-1.304687-11.828125-8.742187-20.398438-11.878906-23.535156l-50.910157-50.914063c-3.125-3.125-3.125-8.1875 0-11.3125s8.1875-3.121093 11.3125 0l50.910157 50.910157c5.382812 5.382812 14.675781 16.835937 16.472656 33.097656 1.953125 17.707031-5.492187 35.121094-22.128906 51.757812-1.5625 1.558594-3.609375 2.339844-5.65625 2.339844zm0 0" fill="#fab155"/><path d="m437.085938 471.59375c-15.8125 0-31.335938-7.519531-46.222657-22.402344-3.125-3.125-3.125-8.191406 0-11.316406 3.125-3.121094 8.1875-3.121094 11.3125 0 13.023438 13.023438 26.054688 18.917969 38.714844 17.507812 11.84375-1.316406 20.386719-8.726562 23.511719-11.851562l11.3125-11.3125c3.125-3.121094 8.191406-3.121094 11.3125 0 3.125 3.125 3.125 8.191406 0 11.3125l-11.3125 11.316406c-5.363282 5.359375-16.785156 14.628906-33.058594 16.433594-1.859375.207031-3.71875.3125-5.570312.3125zm0 0" fill="#fab155"/><path d="m509.65625 409.589844-79.195312-79.195313c-3.125-3.121093-8.1875-3.121093-11.3125 0l-22.628907 22.628907c-3.125 3.125-3.125 8.1875 0 11.3125l79.195313 79.195312c1.5625 1.5625 3.609375 2.34375 5.65625 2.34375 2.050781 0 4.097656-.78125 5.660156-2.34375l22.625-22.625c3.125-3.125 3.125-8.191406 0-11.316406zm0 0" fill="#ffe45c"/><path d="m430.460938 330.394531-328.097657-328.097656c-3.625-3.625-9.882812-2.847656-12.515625 1.542969-2.066406 3.441406-18.316406 35.507812 46.457032 100.28125l260.214843 260.214844c1.5625 1.5625 3.609375 2.34375 5.65625 2.34375 2.050781 0 4.097657-.78125 5.660157-2.34375l22.625-22.628907c3.125-3.125 3.125-8.1875 0-11.3125zm0 0" fill="#e9eaef"/><path d="m430.460938 330.394531-328.097657-328.097656c-3.625-3.625-9.882812-2.847656-12.515625 1.542969-2.066406 3.441406-18.316406 35.507812 46.457032 100.28125l260.214843 260.214844c1.5625 1.5625 3.609375 2.34375 5.65625 2.34375 2.050781 0 4.097657-.78125 5.660157-2.34375l22.625-22.628907c3.125-3.125 3.125-8.1875 0-11.3125zm0 0" fill="#f4f5f7"/><path d="m430.460938 330.394531-328.097657-328.097656c-1.59375-1.59375-3.695312-2.3320312-5.773437-2.29296875-3.296875 11.58203175-4.261719 42.63671875 48.46875 95.36718775l260.214844 260.214844c1.5625 1.5625 3.609374 2.34375 5.65625 2.34375 2.046874 0 4.09375-.78125 5.65625-2.34375l13.875-13.878907c3.125-3.125 3.125-8.1875 0-11.3125zm0 0" fill="#e9eaef"/><path d="m418.195312 386.015625 33.941407-33.9375 11.3125 11.3125-33.941407 33.941406zm0 0" fill="#fff2ad"/><path d="m435.164062 402.988281 33.941407-33.941406 11.316406 11.316406-33.941406 33.941407zm0 0" fill="#fff2ad"/><path d="m452.136719 419.960938 33.941406-33.941407 11.3125 11.3125-33.941406 33.941407zm0 0" fill="#fff2ad"/><path d="m396.519531 451.53125c-2.046875 0-4.09375-.78125-5.65625-2.339844-16.636719-16.636718-24.082031-34.050781-22.125-51.757812 1.792969-16.261719 11.085938-27.714844 16.46875-33.097656l50.910157-50.910157 11.316406 11.3125-50.914063 50.910157c-3.136719 3.136718-10.574219 11.710937-11.878906 23.539062-1.394531 12.640625 4.503906 25.65625 17.535156 38.6875 3.125 3.125 3.125 8.191406 0 11.3125-1.5625 1.5625-3.609375 2.34375-5.65625 2.34375zm0 0" fill="#fab155"/></svg>