<?xml version="1.0" encoding="iso-8859-1"?>
<!-- Generator: Adobe Illustrator 19.0.0, SVG Export Plug-In . SVG Version: 6.00 Build 0)  -->
<svg version="1.1" id="Layer_1" xmlns="http://www.w3.org/2000/svg" xmlns:xlink="http://www.w3.org/1999/xlink" x="0px" y="0px"
	 viewBox="0 0 512 512" style="enable-background:new 0 0 512 512;" xml:space="preserve">
<circle style="fill:#FF9E24;" cx="256" cy="256" r="244.416"/>
<circle style="fill:#FFFFFF;" cx="256" cy="256" r="198.081"/>
<g>
	<path style="fill:#181818;" d="M338.729,199.483c7.239-7.239,7.239-18.973,0-26.21c-7.239-7.239-18.973-7.239-26.21,0
		l-70.275,70.275l26.21,26.21L338.729,199.483z"/>
	<path style="fill:#181818;" d="M174.909,148.699c-7.239-7.239-18.973-7.239-26.21,0c-7.239,7.239-7.239,18.973,0,26.21
		l94.847,94.847l26.21-26.21L174.909,148.699z"/>
</g>
<path style="fill:#EE3840;" d="M148.699,374.885c-2.964,0-5.93-1.132-8.191-3.393c-4.523-4.523-4.525-11.858,0-16.383l86.833-86.834
	c4.523-4.522,11.859-4.522,16.382,0c4.523,4.523,4.523,11.858,0,16.383l-86.833,86.834
	C154.629,373.753,151.663,374.885,148.699,374.885z"/>
<g>
	<path style="fill:#7A7674;" d="M121.629,244.416h-17.376c-6.398,0-11.584,5.187-11.584,11.584c0,6.397,5.186,11.584,11.584,11.584
		h17.376c6.398,0,11.584-5.187,11.584-11.584C133.213,249.603,128.027,244.416,121.629,244.416z"/>
	<path style="fill:#7A7674;" d="M267.584,121.629v-17.376c0-6.397-5.186-11.584-11.584-11.584c-6.398,0-11.584,5.187-11.584,11.584
		v17.376c0,6.397,5.186,11.584,11.584,11.584C262.398,133.213,267.584,128.025,267.584,121.629z"/>
	<path style="fill:#7A7674;" d="M419.33,256c0-6.397-5.186-11.584-11.584-11.584h-17.376c-6.398,0-11.584,5.187-11.584,11.584
		c0,6.397,5.186,11.584,11.584,11.584h17.376C414.144,267.584,419.33,262.397,419.33,256z"/>
	<path style="fill:#7A7674;" d="M244.416,390.371v17.376c0,6.397,5.186,11.584,11.584,11.584c6.398,0,11.584-5.187,11.584-11.584
		v-17.376c0-6.397-5.186-11.584-11.584-11.584C249.602,378.787,244.416,383.975,244.416,390.371z"/>
</g>
<path style="fill:#524E4D;" d="M256,284.959c-15.968,0-28.959-12.991-28.959-28.959c0-15.968,12.991-28.959,28.959-28.959
	c15.968,0,28.959,12.991,28.959,28.959C284.959,271.968,271.968,284.959,256,284.959z"/>
<g>
	<path style="fill:#11113F;" d="M437.02,74.98C388.667,26.629,324.38,0,256,0S123.333,26.629,74.98,74.98
		C26.629,123.333,0,187.62,0,256s26.629,132.667,74.98,181.02C123.333,485.371,187.62,512,256,512s132.667-26.629,181.02-74.98
		C485.371,388.667,512,324.38,512,256S485.371,123.333,437.02,74.98z M256,488.833C127.615,488.833,23.167,384.385,23.167,256
		S127.615,23.167,256,23.167S488.833,127.615,488.833,256S384.385,488.833,256,488.833z"/>
	<path style="fill:#11113F;" d="M256,46.335C140.391,46.335,46.335,140.39,46.335,256S140.39,465.665,256,465.665
		c48.217,0,95.334-16.845,132.672-47.433c4.949-4.054,5.674-11.352,1.621-16.301c-4.054-4.947-11.352-5.675-16.302-1.619
		c-33.208,27.203-75.111,42.186-117.991,42.186c-102.834,0-186.498-83.663-186.498-186.498S153.166,69.502,256,69.502
		c102.836,0,186.498,83.663,186.498,186.498c0,42.879-14.982,84.782-42.187,117.991c-4.054,4.947-3.329,12.246,1.619,16.301
		c4.949,4.055,12.247,3.329,16.302-1.619c30.588-37.337,47.433-84.455,47.433-132.672C465.665,140.39,371.61,46.335,256,46.335z"/>
</g>
<path d="M355.74,186.377c0-8.044-3.133-15.608-8.822-21.297c-11.744-11.742-30.85-11.741-42.593,0L256,213.407l-72.899-72.897
	c-5.689-5.69-13.252-8.822-21.297-8.822c-8.045,0-15.608,3.132-21.296,8.821c-5.689,5.688-8.822,13.251-8.822,21.297
	s3.133,15.609,8.821,21.297l75.003,75.003c1.098,21.38,18.839,38.438,40.489,38.438s39.39-17.058,40.489-38.439l50.431-50.431
	C352.608,201.985,355.74,194.422,355.74,186.377z M154.855,161.805c0-1.857,0.723-3.601,2.036-4.915
	c1.312-1.312,3.058-2.035,4.914-2.035c1.857,0,3.601,0.723,4.915,2.036l65.969,65.969c-3.812,2.69-7.139,6.017-9.829,9.829
	l-65.97-65.97C155.577,165.406,154.855,163.66,154.855,161.805z M256,273.376c-9.581,0-17.376-7.795-17.376-17.376
	c0-9.581,7.795-17.376,17.376-17.376c9.581,0,17.376,7.795,17.376,17.376C273.376,265.581,265.581,273.376,256,273.376z
	 M330.538,191.291l-41.398,41.398c-2.69-3.812-6.017-7.139-9.829-9.829l41.397-41.397c2.711-2.709,7.119-2.711,9.829-0.001
	c1.312,1.314,2.036,3.059,2.036,4.915S331.85,189.979,330.538,191.291z"/>
<g>
</g>
<g>
</g>
<g>
</g>
<g>
</g>
<g>
</g>
<g>
</g>
<g>
</g>
<g>
</g>
<g>
</g>
<g>
</g>
<g>
</g>
<g>
</g>
<g>
</g>
<g>
</g>
<g>
</g>
</svg>
